<svg xmlns="http://www.w3.org/2000/svg" id="Layer_2" data-name="Layer 2" viewBox="0 0 152.63 152.63"><defs><style>.cls-1{fill:#ed1c24}.cls-2{fill:none;stroke:#ed1c24;stroke-miterlimit:10;stroke-width:17px}</style></defs><g id="Layer_2-2" data-name="Layer 2"><path d="M73.22 33.72c30.44-14.29 61.36 16.33 49.93 47.48l-15.66-6.62c4.43-8.2 3.11-19.07-3.19-26.25-6.59-7.88-18.2-10.9-28.05-7.43l-3.03-7.17ZM102.16 102.19c-22.25 8.57-47.83-5.77-51.14-29.38-1.05-7.13.07-14.45 3.12-20.78l8.26 3.49c-3.48 9.64-.6 21.06 7.1 27.61 7.06 6.31 17.85 7.72 26.05 3.4l6.62 15.66Z" class="cls-1"/><path d="M86.79 96.8v26.37M86.79 34.87V8.5M144.13 65.83h-26.37M29.46 65.83h26.37M144.13 65.83c0 15.83-6.42 30.17-16.79 40.54s-24.71 16.79-40.54 16.79-30.17-6.42-40.54-16.79C35.88 95.99 29.47 81.66 29.47 65.83s6.42-30.17 16.79-40.54S70.97 8.5 86.8 8.5s30.17 6.42 40.54 16.79c10.38 10.38 16.79 24.71 16.79 40.54Z" class="cls-2"/><circle cx="86.79" cy="65.83" r="2.07" class="cls-2"/><path d="M52.26 112.38 4.55 152.63 0 148.08l40.24-47.72z" class="cls-1"/></g></svg>