<svg xmlns="http://www.w3.org/2000/svg" id="Layer_2" data-name="Layer 2" viewBox="0 0 150.72 150.72"><defs><style>.cls-1{fill:#ed1c24}.cls-2{fill:none;stroke:#ed1c24;stroke-miterlimit:10;stroke-width:14px}</style></defs><g id="Layer_2-2" data-name="Layer 2"><path d="M73.09 32.85c20.18-10.35 45.2 2.23 50.24 24.28 1.77 7.24 1.39 15.23-1.96 21.98l-12.89-5.45c.71-2.26 1.3-4.52 1.63-6.86 1.16-7.24-.84-14.73-5.81-20.37-6.73-8.03-18.71-11.07-28.7-7.68l-2.5-5.91ZM101.17 99.31c-30.37 11.5-60.25-18.64-46.71-48.47l6.8 2.88c-3.73 9.93-.88 21.81 7.02 28.73 7.34 6.75 18.69 8.39 27.44 3.97z" class="cls-1"/><path d="M86.39 95.3v26.37M86.39 33.37V7M143.72 64.33h-26.37M29.06 64.33h26.37M143.72 64.33c0 15.83-6.42 30.17-16.79 40.54s-24.71 16.79-40.54 16.79-30.17-6.42-40.54-16.79C35.47 94.49 29.06 80.16 29.06 64.33s6.42-30.17 16.79-40.54S70.56 7 86.39 7s30.17 6.42 40.54 16.79c10.38 10.38 16.79 24.71 16.79 40.54Z" class="cls-2"/><circle cx="86.39" cy="64.33" r="2.07" class="cls-2"/><path d="m50.8 109.82-47.05 40.9L0 146.98l40.9-47.06z" class="cls-1"/></g></svg>