<svg xmlns="http://www.w3.org/2000/svg" id="Layer_2" data-name="Layer 2" viewBox="0 0 153.7 153.7"><defs><style>.cls-1{fill:#ed1c24}.cls-2{fill:none;stroke:#ed1c24;stroke-miterlimit:10;stroke-width:17px}</style></defs><g id="Layer_2-2" data-name="Layer 2"><path d="M73.85 32.66c26.64-14.26 57.69 7.96 55.96 37.51-.28 4.15-1.34 8.31-3.28 12l-20.26-8.57c2.3-8.33 2.93-16.02-2.79-23.38-5.62-7.61-16.49-10.84-25.7-8.28zM104.2 104.49c-23.54 8.81-50.43-6.36-53.7-31.37-1.01-7.46.24-15.06 3.49-21.6l10.69 4.52c-3.07 9.14-.14 19.82 7.23 25.75 6.67 5.57 16.26 6.63 23.72 2.44z" class="cls-1"/><path d="M87.86 96.8v26.37M87.86 34.87V8.5M145.2 65.83h-26.37M30.53 65.83H56.9M145.2 65.83c0 15.83-6.42 30.17-16.79 40.54s-24.71 16.79-40.54 16.79-30.17-6.42-40.54-16.79C36.95 95.99 30.54 81.66 30.54 65.83s6.42-30.17 16.79-40.54S72.04 8.5 87.87 8.5s30.17 6.42 40.54 16.79C138.79 35.67 145.2 50 145.2 65.83Z" class="cls-2"/><circle cx="87.86" cy="65.83" r="2.07" class="cls-2"/><path d="M56.16 115.21 6.69 153.7 0 147.01l38.48-49.47z" class="cls-1"/></g></svg>